<!-- icon666.com - MILLIONS OF FREE VECTOR ICONS --><svg version="1.1" id="Capa_1" xmlns="http://www.w3.org/2000/svg" xmlns:xlink="http://www.w3.org/1999/xlink" x="0px" y="0px" viewBox="0 0 512 512" style="enable-background:new 0 0 512 512;" xml:space="preserve"><g><g><path d="M246,206c-5.52,0-10,4.48-10,10s4.48,10,10,10s10-4.48,10-10S251.52,206,246,206z" fill="#000000" style="fill: rgb(255, 255, 255);"></path></g></g><g><g><path d="M492,102l-29.333-22L492,58c3.443-2.583,4.848-7.079,3.486-11.162C494.125,42.754,490.304,40,486,40h-71.006 C410.348,17.205,390.146,0,366,0H66C38.43,0,16,22.43,16,50v422c0,22.056,17.944,40,40,40h310c27.57,0,50-22.43,50-50v-20V120h70 c4.304,0,8.125-2.754,9.487-6.838C496.848,109.079,495.444,104.583,492,102z M36,50c0-16.542,13.458-30,30-30h10v412H56 c-7.136,0-13.984,1.867-20,5.355V50z M396,462c0,16.542-13.458,30-30,30H56c-11.028,0-20-8.972-20-20c0-11.045,8.954-20,20-20h340 V462z M396,432H96V20h270c16.542,0,30,13.458,30,30C396,67.728,396,412.737,396,432z M440,88l16,12h-40V60h40l-16,12 c-2.518,1.889-4,4.853-4,8C436,83.147,437.482,86.111,440,88z" fill="#000000" style="fill: rgb(255, 255, 255);"></path></g></g><g><g><path d="M286,306h-80c-5.523,0-10,4.478-10,10c0,5.522,4.477,10,10,10h80c5.523,0,10-4.478,10-10C296,310.478,291.523,306,286,306 z" fill="#000000" style="fill: rgb(255, 255, 255);"></path></g></g><g><g><path d="M326,366H166c-5.523,0-10,4.478-10,10c0,5.522,4.477,10,10,10h160c5.523,0,10-4.478,10-10 C336,370.478,331.523,366,326,366z" fill="#000000" style="fill: rgb(255, 255, 255);"></path></g></g><g><g><path d="M315.41,126.888C310.928,92.58,281.509,66,246,66c-35.509,0-64.929,26.58-69.41,60.888 C153.503,131.302,136,151.646,136,176c0,25.404,19.047,46.427,43.608,49.577l17.447,34.894C198.749,263.86,202.212,266,206,266h80 c3.788,0,7.25-2.14,8.944-5.528l17.447-34.894C336.952,222.427,356,201.404,356,176C356,151.646,338.497,131.302,315.41,126.888z M306,206h-20c-5.523,0-10,4.478-10,10c0,5.522,4.477,10,10,10h3.82l-10,20h-67.64l-10-20H206c5.523,0,10-4.478,10-10 c0-5.522-4.477-10-10-10h-20c-16.542,0-30-13.458-30-30s13.458-30,30-30c5.523,0,10-4.478,10-10c0-27.57,22.43-50,50-50 s50,22.43,50,50c0,5.522,4.477,10,10,10c16.542,0,30,13.458,30,30S322.542,206,306,206z" fill="#000000" style="fill: rgb(255, 255, 255);"></path></g></g></svg>